# xmcd CD database file
#
# Track frame offsets:
#	150
#	17551
#	34156
#	59434
#	76688
#
# Disc length: 1242 seconds
#
# Revision: 1
# Processed by: cddbd v1.5.2PL0 Copyright (c) Steve Scherf et al.
# Submitted via: CDex 1.70beta3
#
DISCID=3004d805
DTITLE=覆面☆兄弟 - 店長のイチオシ！
DYEAR=2007
DGENRE=New Age
TTITLE0=赤坂恋迷路
TTITLE1=国民総覆面キャンペーン
TTITLE2=「明日、君にあいたい」
TTITLE3=赤坂恋迷路～カラオケ編～
TTITLE4=国民総覆面キャンペーン～カラオケなのに歌えま編！？～
EXTD=YEAR: 2007
EXTT0=
EXTT1=
EXTT2=
EXTT3=
EXTT4=
PLAYORDER=
